<?xml version="1.0" encoding="UTF-8" standalone="no"?>
<!DOCTYPE svg PUBLIC "-//W3C//DTD SVG 1.1//EN"
 "http://www.w3.org/Graphics/SVG/1.1/DTD/svg11.dtd">
<!-- Generated by graphviz version 2.38.0 (20140413.2041)
 -->
<!-- Title: %3 Pages: 1 -->
<svg width="812pt" height="332pt"
 viewBox="0.00 0.00 812.22 332.00" xmlns="http://www.w3.org/2000/svg" xmlns:xlink="http://www.w3.org/1999/xlink">
<g id="graph0" class="graph" transform="scale(1 1) rotate(0) translate(4 328)">
<title>%3</title>
<polygon fill="white" stroke="none" points="-4,4 -4,-328 808.215,-328 808.215,4 -4,4"/>
<!-- [root] google_compute_instance.backend -->
<g id="node1" class="node"><title>[root] google_compute_instance.backend</title>
<polygon fill="none" stroke="black" points="586.128,-108 319.128,-108 319.128,-72 586.128,-72 586.128,-108"/>
<text text-anchor="middle" x="452.628" y="-86.3" font-family="Times,serif" font-size="14.00">google_compute_instance.backend</text>
</g>
<!-- [root] provider.google -->
<g id="node3" class="node"><title>[root] provider.google</title>
<polygon fill="none" stroke="black" points="452.628,-36 334.824,-18 452.628,-3.55271e-15 570.432,-18 452.628,-36"/>
<text text-anchor="middle" x="452.628" y="-14.3" font-family="Times,serif" font-size="14.00">provider.google</text>
</g>
<!-- [root] google_compute_instance.backend&#45;&gt;[root] provider.google -->
<g id="edge1" class="edge"><title>[root] google_compute_instance.backend&#45;&gt;[root] provider.google</title>
<path fill="none" stroke="black" d="M452.628,-71.6966C452.628,-63.9827 452.628,-54.7125 452.628,-46.1124"/>
<polygon fill="black" stroke="black" points="456.128,-46.1043 452.628,-36.1043 449.128,-46.1044 456.128,-46.1043"/>
</g>
<!-- [root] google_compute_instance.frontend -->
<g id="node2" class="node"><title>[root] google_compute_instance.frontend</title>
<polygon fill="none" stroke="black" points="586.628,-180 318.628,-180 318.628,-144 586.628,-144 586.628,-180"/>
<text text-anchor="middle" x="452.628" y="-158.3" font-family="Times,serif" font-size="14.00">google_compute_instance.frontend</text>
</g>
<!-- [root] google_compute_instance.frontend&#45;&gt;[root] google_compute_instance.backend -->
<g id="edge2" class="edge"><title>[root] google_compute_instance.frontend&#45;&gt;[root] google_compute_instance.backend</title>
<path fill="none" stroke="black" d="M452.628,-143.697C452.628,-135.983 452.628,-126.712 452.628,-118.112"/>
<polygon fill="black" stroke="black" points="456.128,-118.104 452.628,-108.104 449.128,-118.104 456.128,-118.104"/>
</g>
<!-- [root] meta.count&#45;boundary (count boundary fixup) -->
<g id="node4" class="node"><title>[root] meta.count&#45;boundary (count boundary fixup)</title>
<ellipse fill="none" stroke="black" cx="247.628" cy="-234" rx="247.756" ry="18"/>
<text text-anchor="middle" x="247.628" y="-230.3" font-family="Times,serif" font-size="14.00">[root] meta.count&#45;boundary (count boundary fixup)</text>
</g>
<!-- [root] meta.count&#45;boundary (count boundary fixup)&#45;&gt;[root] google_compute_instance.frontend -->
<g id="edge3" class="edge"><title>[root] meta.count&#45;boundary (count boundary fixup)&#45;&gt;[root] google_compute_instance.frontend</title>
<path fill="none" stroke="black" d="M296.47,-216.322C325.43,-206.434 362.348,-193.827 393.016,-183.355"/>
<polygon fill="black" stroke="black" points="394.403,-186.58 402.736,-180.036 392.141,-179.956 394.403,-186.58"/>
</g>
<!-- [root] provider.google (close) -->
<g id="node5" class="node"><title>[root] provider.google (close)</title>
<ellipse fill="none" stroke="black" cx="658.628" cy="-234" rx="145.674" ry="18"/>
<text text-anchor="middle" x="658.628" y="-230.3" font-family="Times,serif" font-size="14.00">[root] provider.google (close)</text>
</g>
<!-- [root] provider.google (close)&#45;&gt;[root] google_compute_instance.frontend -->
<g id="edge4" class="edge"><title>[root] provider.google (close)&#45;&gt;[root] google_compute_instance.frontend</title>
<path fill="none" stroke="black" d="M611.367,-216.941C581.979,-206.954 543.927,-194.024 512.447,-183.327"/>
<polygon fill="black" stroke="black" points="513.499,-179.988 502.905,-180.084 511.247,-186.616 513.499,-179.988"/>
</g>
<!-- [root] root -->
<g id="node6" class="node"><title>[root] root</title>
<ellipse fill="none" stroke="black" cx="452.628" cy="-306" rx="58.4896" ry="18"/>
<text text-anchor="middle" x="452.628" y="-302.3" font-family="Times,serif" font-size="14.00">[root] root</text>
</g>
<!-- [root] root&#45;&gt;[root] meta.count&#45;boundary (count boundary fixup) -->
<g id="edge5" class="edge"><title>[root] root&#45;&gt;[root] meta.count&#45;boundary (count boundary fixup)</title>
<path fill="none" stroke="black" d="M415.028,-292.161C384.599,-281.771 341.207,-266.954 306.226,-255.009"/>
<polygon fill="black" stroke="black" points="307.195,-251.642 296.6,-251.722 304.933,-258.266 307.195,-251.642"/>
</g>
<!-- [root] root&#45;&gt;[root] provider.google (close) -->
<g id="edge6" class="edge"><title>[root] root&#45;&gt;[root] provider.google (close)</title>
<path fill="none" stroke="black" d="M490.412,-292.161C521.52,-281.59 566.111,-266.438 601.567,-254.39"/>
<polygon fill="black" stroke="black" points="602.965,-257.611 611.307,-251.08 600.712,-250.984 602.965,-257.611"/>
</g>
</g>
</svg>
